<mxfile host="app.diagrams.net" modified="2024-03-18T19:11:12.152Z" agent="Mozilla/5.0 (Macintosh; Intel Mac OS X 10_15_7) AppleWebKit/537.36 (KHTML, like Gecko) Chrome/121.0.0.0 Safari/537.36" version="21.7.5" etag="gDGOBGabHNehz4VX_ody" type="github">
  <diagram name="Page-1" id="JskXgRPxJ73svBaB60Wt">
    <mxGraphModel>
      <root>
        <mxCell id="0" />
        <mxCell id="1" parent="0" />
      </root>
    </mxGraphModel>
  </diagram>
</mxfile>
